<?xml version="1.0" encoding="UTF-8" standalone="no"?>
<!-- Created with Inkscape (http://www.inkscape.org/) -->

<svg
   version="1.1"
   id="svg2"
   width="1048"
   height="1048"
   viewBox="0 0 1048 1048"
   sodipodi:docname="pianissimo.svg"
   inkscape:version="1.1.2 (0a00cf5339, 2022-02-04)"
   xmlns:inkscape="http://www.inkscape.org/namespaces/inkscape"
   xmlns:sodipodi="http://sodipodi.sourceforge.net/DTD/sodipodi-0.dtd"
   xmlns="http://www.w3.org/2000/svg"
   xmlns:svg="http://www.w3.org/2000/svg">
  <defs
     id="defs6" />
  <sodipodi:namedview
     id="namedview4"
     pagecolor="#ffffff"
     bordercolor="#666666"
     borderopacity="1.0"
     inkscape:pageshadow="2"
     inkscape:pageopacity="0.0"
     inkscape:pagecheckerboard="0"
     showgrid="true"
     showguides="false"
     inkscape:zoom="0.15161134"
     inkscape:cx="2146.9371"
     inkscape:cy="1368.6312"
     inkscape:window-width="1920"
     inkscape:window-height="1007"
     inkscape:window-x="0"
     inkscape:window-y="0"
     inkscape:window-maximized="1"
     inkscape:current-layer="g8">
    <inkscape:grid
       type="xygrid"
       id="grid1066"
       empspacing="48" />
  </sodipodi:namedview>
  <g
     inkscape:groupmode="layer"
     inkscape:label="Image"
     id="g8">
    <rect
       style="opacity:1;fill:#ffffff;fill-opacity:0.99445;stroke:none;stroke-width:96;stroke-linecap:round;stroke-linejoin:bevel;stroke-miterlimit:4;stroke-dasharray:none;stroke-opacity:1"
       id="rect2207"
       width="960"
       height="960"
       x="44"
       y="44"
       ry="148" />
    <path
       id="rect1090"
       style="opacity:1;fill:#000000;fill-opacity:0.99445;stroke:none;stroke-width:1.09166;stroke-linecap:round;stroke-linejoin:bevel;stroke-opacity:1"
       d="M 191.90039 0.099609375 C 85.587794 0.099609375 0 85.687403 0 192 L 0 856.19922 C 0 962.51182 85.587794 1048.0996 191.90039 1048.0996 L 856.09961 1048.0996 C 962.41221 1048.0996 1048 962.51182 1048 856.19922 L 1048 192 C 1048 85.687403 962.41221 0.099609375 856.09961 0.099609375 L 191.90039 0.099609375 z M 192 64 L 852.09961 64 C 923.01161 64 980.09961 121.088 980.09961 192 L 980.09961 852.09961 C 980.09961 923.01161 923.01161 980.09961 852.09961 980.09961 L 192 980.09961 C 121.088 980.09961 64 923.01161 64 852.09961 L 64 192 C 64 121.088 121.088 64 192 64 z " />
    <path
       style="fill:#000000;stroke-width:0.795653"
       d="m 372.85279,805.66305 c -3.7198,-0.3843 -13.566,-1.3944 -21.8806,-2.2445 -26.6392,-2.7236 -52.8709,-3.5535 -77.5766,-2.4543 -12.0343,0.5355 -27.7883,1.6621 -35.0089,2.5037 -17.9418,2.0911 -20.2858,2.0355 -23.6918,-0.5623 -4.4815,-3.4183 -6.7212,-9.3697 -6.6946,-17.789 0.017,-5.4039 0.4136,-7.9214 1.7086,-10.8489 3.2677,-7.3872 6.2001,-9.1108 16.7807,-9.8636 8.7576,-0.6232 21.1031,-2.7113 28.6811,-4.85134 8.8175,-2.49004 14.7079,-7.93501 20.1275,-18.6058 4.0018,-7.8794 5.8483,-14.04626 11.1937,-37.38472 0.6014,-2.62567 1.8292,-7.81734 2.7283,-11.53703 0.8992,-3.71969 2.8935,-12.13376 4.4317,-18.69793 3.1723,-13.53744 6.7394,-28.71715 9.6291,-40.97633 1.0832,-4.59491 2.4703,-10.50267 3.0826,-13.12834 0.6122,-2.62566 1.859,-7.90683 2.7705,-11.73593 0.9116,-3.8291 2.4032,-10.09489 3.3148,-13.924 0.9115,-3.82909 2.1612,-9.11026 2.7771,-11.73593 4.5104,-19.23011 6.2146,-26.45512 7.8825,-33.41758 1.0483,-4.37612 3.203,-13.50627 4.7883,-20.28925 1.5852,-6.78298 3.5713,-15.19705 4.4134,-18.69793 0.8422,-3.5009 2.8228,-11.91497 4.4016,-18.69795 1.5786,-6.78297 4.6619,-19.49358 6.8515,-28.24581 2.9395,-11.74932 4.0911,-18.01263 4.4011,-23.93698 0.5593,-10.68799 0,-11.7801 -5.8068,-11.29871 -10.9074,0.90451 -19.3327,12.1438 -25.4403,33.9371 -1.0587,3.7775 -2.6483,9.3745 -3.5327,12.43779 -0.8843,3.06328 -2.8586,9.95566 -4.3874,15.31639 -9.7285,34.11343 -10.7587,36.99947 -16.0513,44.96701 -4.0901,6.15732 -7.214,8.80828 -12.9465,10.98646 -5.1991,1.97548 -7.6747,1.91724 -11.5007,-0.27059 -4.1761,-2.38798 -5.8643,-4.87655 -7.0038,-10.32442 -1.5669,-7.49102 0.58,-16.89977 10.9404,-47.94434 7.8492,-23.5202 17.0745,-43.53844 30.2099,-65.55395 14.1309,-23.68374 28.353,-36.32621 45.3507,-40.31353 12.7784,-2.99757 25.0922,1.82318 33.3062,13.03903 5.6777,7.75286 13.2077,25.9454 13.2456,32.00176 0.029,4.53905 1.2766,3.87683 6.4806,-3.43824 6.942,-9.75797 18.3616,-21.70082 26.8211,-28.05008 15.8882,-11.92484 30.5919,-16.33011 46.3749,-13.89409 28.1095,4.33853 46.6186,23.82961 57.413,60.45883 3.808,12.92226 6.5845,37.36124 5.9617,52.47684 -0.2001,4.85642 -0.1284,8.55206 0.1592,8.21254 0.2877,-0.33952 1.9007,-4.91383 3.5845,-10.16517 7.5676,-23.60114 15.6471,-42.10963 27.598,-63.22122 17.6779,-31.22858 34.1544,-45.90019 54.1914,-48.25515 8.6444,-1.01597 19.4127,3.299 25.7088,10.3017 6.1317,6.81995 12.3242,18.95327 14.6992,28.80114 0.5236,2.17088 1.348,5.48514 1.8321,7.36502 l 0.8801,3.41798 5.1718,-7.36731 c 2.8444,-4.05202 8.5586,-10.90367 12.6982,-15.22588 25.378,-26.49787 50.1897,-33.66571 76.8131,-22.19044 24.7502,10.66792 41.7501,41.22822 46.1555,82.97292 1.4816,14.03883 1.4792,25.30927 -0.01,42.02937 -5.4003,60.67871 -23.2627,102.84776 -58.8772,138.9952 -11.8571,12.03454 -24.638,20.47892 -36.4851,24.10573 -7.3411,2.24739 -15.7167,2.16816 -27.4169,-0.25937 -12.7399,-2.64324 -21.8731,-6.11926 -29.7225,-11.3122 -9.1625,-6.06162 -10.4372,-6.65003 -14.4065,-6.65003 -3.8471,0 -5.9783,1.68011 -7.5699,5.96743 -0.7833,2.11033 -9.0943,37.68181 -12.548,53.70683 -1.6476,7.64448 -2.3497,25.00208 -1.3084,32.34558 1.8857,13.29863 5.8272,16.50982 22.4416,18.28342 13.8522,1.4787 14.7597,1.6861 17.5096,3.9999 3.3209,2.7944 4.9304,6.0831 5.9668,12.1921 1.8625,10.9777 -1.5667,20.7406 -8.5634,24.3806 -2.3665,1.2311 -2.2043,1.2409 -34.8044,-2.1103 -26.2305,-2.6963 -53.2977,-3.5475 -77.5503,-2.4385 -11.83,0.541 -27.5373,1.674 -34.9052,2.5178 -18.2491,2.0901 -20.4955,2.0368 -23.5799,-0.5585 -1.368,-1.1511 -3.4237,-3.9259 -4.5683,-6.1663 -1.7953,-3.514 -2.0786,-5.0574 -2.0617,-11.2345 0.028,-10.2763 2.6591,-16.1853 8.5972,-19.3092 1.3923,-0.7325 5.7086,-1.4977 10.3585,-1.8363 8.2333,-0.5996 18.7192,-2.3221 27.0374,-4.44137 14.0966,-3.59159 23.277,-16.64604 29.0073,-41.24831 0.9173,-3.93851 2.4041,-10.2043 3.304,-13.924 0.8999,-3.71969 2.1292,-8.91135 2.7319,-11.53702 2.288,-9.96874 4.4917,-19.25278 5.5712,-23.47187 0.6158,-2.40687 1.8528,-7.59853 2.7489,-11.53703 0.896,-3.9385 2.1425,-9.30918 2.7699,-11.93485 0.6275,-2.62567 1.8816,-7.99636 2.7871,-11.93486 0.9055,-3.93849 2.3758,-10.20429 3.2676,-13.92399 0.8917,-3.71969 2.1144,-8.91135 2.717,-11.53702 0.6027,-2.62567 1.8292,-7.81733 2.7258,-11.53702 0.8965,-3.7197 2.9213,-12.31279 4.4997,-19.09576 3.2277,-13.87125 6.5964,-28.19031 9.5464,-40.5785 1.0942,-4.59492 2.4892,-10.50267 3.1001,-13.12834 0.6108,-2.62566 2.0197,-8.53342 3.1308,-13.12833 1.1111,-4.59492 4.3621,-18.35896 7.2243,-30.58676 2.8623,-12.22779 5.7449,-24.04329 6.4059,-26.25666 1.7541,-5.87418 3.6352,-19.26685 3.0567,-21.76352 -0.9702,-4.18759 -2.5094,-5.73268 -5.7107,-5.73268 -5.5777,0 -12.6681,5.02783 -17.1603,12.16851 -4.4624,7.09331 -5.3545,9.64579 -14.4482,41.3394 -11.5599,40.28947 -11.8938,41.33887 -15.3481,48.25685 -1.6171,3.23847 -4.5514,7.6048 -6.5206,9.70297 -3.8639,4.11682 -11.1102,7.88078 -15.1719,7.88078 -3.1725,0 -8.347,-2.70313 -9.998,-5.22285 -1.6948,-2.58657 -2.2256,-1.90771 -3.4618,4.42719 -1.7095,8.7605 -5.4825,22.80181 -8.0805,30.07167 -1.3613,3.80951 -3.0213,8.48361 -3.6889,10.3869 -2.0545,5.85774 -11.5501,24.02219 -16.2842,31.15055 -6.5327,9.83674 -17.442,23.19959 -25.7585,31.55185 -16.4369,16.50739 -33.5356,25.74704 -47.6144,25.72943 -14.3137,-0.0179 -34.7099,-5.8275 -45.7232,-13.02362 -9.356,-6.11333 -10.9014,-6.8618 -14.1683,-6.8618 -6.7667,0 -7.3559,1.29989 -14.0656,31.03061 -0.642,2.84448 -2.2952,10.00539 -3.674,15.91314 -4.7091,20.17812 -5.8847,34.24181 -3.8522,46.08293 2.2323,13.00421 5.5787,15.42368 24.2447,17.52928 13.5728,1.5311 16.3113,2.648 19.2317,7.8442 2.0041,3.5657 3.4078,11.9661 2.8413,17.0035 -0.8015,7.1271 -4.4965,13.5961 -8.7907,15.3903 -3.0462,1.2728 -2.9788,1.2716 -12.9649,0.2397 z M 414.07549,634 c 13.0185,-6.62562 22.8457,-22.45002 32.7054,-52.66431 1.7683,-5.41884 3.7445,-11.46363 4.3915,-13.43289 3.8346,-11.67098 11.3931,-45.01799 13.1652,-58.08294 0.3858,-2.84447 1.8406,-12.5117 3.2328,-21.48273 2.0079,-12.93804 2.546,-18.94349 2.6019,-29.04147 0.074,-13.4245 -0.4445,-16.59812 -3.9176,-23.96721 -4.1364,-8.77596 -12.5463,-10.78555 -23.081,-5.51525 -9.7373,4.87137 -18.1113,14.73523 -26.0426,30.67594 -4.2489,8.53939 -6.7069,14.30453 -12.891,30.23495 -1.2677,3.26564 -6.7487,21.36093 -8.5555,28.24583 -2.8704,10.93739 -3.7551,14.7527 -5.3507,23.07404 -0.923,4.81372 -2.1924,11.43757 -2.821,14.71965 -4.249,22.18626 -5.5381,49.38058 -2.8666,60.46992 2.6412,10.96366 7.3664,17.51772 13.8025,19.14484 4.3204,1.09225 10.7216,0.11799 15.6267,-2.37837 z m 269.9298,0.31441 c 11.5256,-5.84043 21.5438,-20.14927 29.6826,-42.39487 11.2272,-30.68709 18.7552,-62.87521 24.6906,-105.57155 3.1892,-22.94061 3.5075,-30.36603 1.7225,-40.18067 -1.4636,-8.04792 -3.5637,-12.55943 -7.5028,-16.11818 -3.0797,-2.78237 -3.6277,-2.97758 -8.3584,-2.97758 -4.2074,0 -6.015,0.4765 -10.701,2.82077 -7.574,3.78913 -16.5567,13.31813 -22.2607,23.61446 -3.997,7.21499 -10.9911,22.20623 -13.1836,28.25773 -0.5962,1.64569 -1.9998,5.49847 -3.1191,8.56175 -5.4618,14.94822 -11.978,39.36885 -15.1797,56.88946 -0.6797,3.7197 -1.8036,9.88305 -2.4976,13.69635 -3.4431,18.92086 -4.5515,43.93524 -2.4365,54.98913 2.1036,10.99461 7.4833,18.80175 14.1105,20.47716 4.0979,1.036 10.7061,0.12876 15.0332,-2.06396 z"
       id="path845" />
  </g>
</svg>
