<?xml version="1.0" encoding="UTF-8" standalone="no"?>
<!-- Created with Inkscape (http://www.inkscape.org/) -->

<svg
   version="1.1"
   id="svg2"
   width="1048"
   height="1048"
   viewBox="0 0 1048 1048"
   sodipodi:docname="pianissimo-black.svg"
   inkscape:version="1.1.2 (0a00cf5339, 2022-02-04)"
   inkscape:export-filename="/home/amedeo/Github/ammatwain/pianopiano/src/pianissimo.png"
   inkscape:export-xdpi="96"
   inkscape:export-ydpi="96"
   xmlns:inkscape="http://www.inkscape.org/namespaces/inkscape"
   xmlns:sodipodi="http://sodipodi.sourceforge.net/DTD/sodipodi-0.dtd"
   xmlns="http://www.w3.org/2000/svg"
   xmlns:svg="http://www.w3.org/2000/svg">
  <defs
     id="defs6" />
  <sodipodi:namedview
     id="namedview4"
     pagecolor="#ffffff"
     bordercolor="#666666"
     borderopacity="1.0"
     inkscape:pageshadow="2"
     inkscape:pageopacity="0.0"
     inkscape:pagecheckerboard="0"
     showgrid="true"
     showguides="false"
     inkscape:zoom="0.11313708"
     inkscape:cx="-817.59222"
     inkscape:cy="1087.1767"
     inkscape:window-width="1920"
     inkscape:window-height="1007"
     inkscape:window-x="0"
     inkscape:window-y="0"
     inkscape:window-maximized="1"
     inkscape:current-layer="g8">
    <inkscape:grid
       type="xygrid"
       id="grid1066"
       empspacing="48" />
  </sodipodi:namedview>
  <g
     inkscape:groupmode="layer"
     inkscape:label="Image"
     id="g8">
    <rect
       style="opacity:1;fill:#ffffff;fill-opacity:0.99445;stroke:none;stroke-width:96;stroke-linecap:round;stroke-linejoin:bevel;stroke-miterlimit:4;stroke-dasharray:none;stroke-opacity:1"
       id="rect2207"
       width="960"
       height="960"
       x="44"
       y="44"
       ry="148" />
    <path
       style="opacity:1;fill:#000000;fill-opacity:0.99445;stroke:none;stroke-width:1.09166;stroke-linecap:round;stroke-linejoin:bevel;stroke-opacity:1"
       d="m 192,64 h 660.09961 c 70.912,0 128,57.088 128,128 v 660.09961 c 0,70.912 -57.088,128 -128,128 H 192 c -70.912,0 -128,-57.088 -128,-128 V 192 C 64,121.088 121.088,64 192,64 Z"
       id="path846" />
    <path
       style="opacity:1;fill:#000000;fill-opacity:0.99445;stroke:none;stroke-width:1.09166;stroke-linecap:round;stroke-linejoin:bevel;stroke-opacity:1"
       d="M 191.90039,0.09960937 C 85.587794,0.09960937 0,85.687403 0,192 v 664.19922 c 0,106.3126 85.587794,191.90038 191.90039,191.90038 H 856.09961 C 962.41221,1048.0996 1048,962.51182 1048,856.19922 V 192 C 1048,85.687403 962.41221,0.09960937 856.09961,0.09960937 Z"
       id="rect1090" />
    <path
       style="fill:#f2f2f2;stroke-width:1.06087"
       d="m 329.03639,852.8841 c -4.95973,-0.5124 -18.088,-1.8592 -29.17414,-2.99266 -35.51894,-3.63147 -70.49454,-4.738 -103.43548,-3.2724 -16.04574,0.714 -37.05108,2.21613 -46.67854,3.33826 -23.92241,2.78814 -27.04774,2.714 -31.58908,-0.74973 -5.97533,-4.55773 -8.9616,-12.49294 -8.92613,-23.71867 0.0227,-7.2052 0.55146,-10.56187 2.27813,-14.4652 4.35694,-9.84961 8.2668,-12.14774 22.37427,-13.15147 11.6768,-0.83094 28.13747,-3.61507 38.24148,-6.46846 11.75667,-3.32005 19.61053,-10.58001 26.83667,-24.80774 5.33573,-10.50586 7.79773,-18.72835 14.92493,-49.8463 0.80187,-3.50089 2.43894,-10.42312 3.63774,-15.38271 1.19893,-4.95958 3.858,-16.17835 5.90893,-24.93058 4.22974,-18.04992 8.98587,-38.28954 12.8388,-54.63511 1.44427,-6.12655 3.29374,-14.00356 4.11014,-17.50446 0.81627,-3.50088 2.47867,-10.54244 3.694,-15.64791 1.21547,-5.10547 3.20427,-13.45985 4.41973,-18.56533 1.21534,-5.10546 2.8816,-12.14702 3.7028,-15.64791 6.01387,-25.64016 8.28614,-35.2735 10.51001,-44.55679 1.39773,-5.83482 4.27066,-18.00836 6.3844,-27.05233 2.1136,-9.04398 4.76173,-20.26274 5.88453,-24.93058 1.12294,-4.66787 3.76374,-15.88663 5.8688,-24.93061 2.1048,-9.04396 6.21587,-25.99144 9.13534,-37.66108 3.91933,-15.66577 5.4548,-24.01685 5.86813,-31.91598 0.74574,-14.25066 0,-15.70681 -7.7424,-15.06495 -14.5432,1.20601 -25.77694,16.19173 -33.92041,45.24947 -1.4116,5.03667 -3.53106,12.49934 -4.71026,16.58373 -1.17907,4.08437 -3.81147,13.27421 -5.84987,20.42185 -12.97134,45.48458 -14.34494,49.33264 -21.40174,59.95603 -5.45347,8.20976 -9.61867,11.74437 -17.262,14.64861 -6.93214,2.63398 -10.23294,2.55632 -15.33427,-0.36078 -5.56813,-3.18398 -7.81907,-6.50207 -9.3384,-13.7659 -2.0892,-9.98803 0.77333,-22.53303 14.5872,-63.9258 10.4656,-31.36027 22.766,-58.05126 40.27987,-87.40528 18.84121,-31.57833 37.80401,-48.43496 60.46762,-53.75138 17.03787,-3.99676 33.45627,2.4309 44.40827,17.38537 7.57027,10.33715 17.61027,34.59388 17.6608,42.66902 0.0387,6.05207 1.70214,5.16911 8.64081,-4.58432 9.256,-13.01063 24.48213,-28.93443 35.76147,-37.40011 21.18427,-15.89979 40.78921,-21.77348 61.83321,-18.52546 37.47934,5.78471 62.15815,31.77282 76.55068,80.61179 5.07734,17.22968 8.77934,49.815 7.94894,69.96913 -0.2668,6.47523 -0.1712,11.40275 0.21226,10.95006 0.3836,-0.45269 2.53427,-6.55178 4.77934,-13.55356 10.09013,-31.4682 20.8628,-56.14619 36.79734,-84.29498 23.57053,-41.63811 45.53921,-61.20026 72.25521,-64.34021 11.52587,-1.35463 25.88361,4.39867 34.27841,13.7356 8.1756,9.09327 16.43227,25.27103 19.59893,38.40153 0.69814,2.89451 1.79734,7.31352 2.4428,9.82003 l 1.17347,4.5573 6.89574,-9.82308 c 3.79253,-5.40269 11.41146,-14.53823 16.93093,-20.30117 33.83734,-35.3305 66.91961,-44.88763 102.41749,-29.58726 33.00027,14.22389 55.66676,54.97097 61.54066,110.63058 1.9755,18.71844 1.9723,33.7457 -0.013,56.03917 -7.20042,80.90496 -31.01696,137.13037 -78.50297,185.32697 -15.80947,16.04605 -32.85067,27.30523 -48.6468,32.14097 -9.78814,2.99653 -20.95561,2.89089 -36.55588,-0.34582 -16.98653,-3.52432 -29.16414,-8.15902 -39.63001,-15.08294 -12.21666,-8.08216 -13.91626,-8.86671 -19.20867,-8.86671 -5.12946,0 -7.97106,2.24015 -10.0932,7.95658 -1.0444,2.81377 -12.12573,50.24242 -16.73067,71.60912 -2.1968,10.19264 -3.13293,33.33611 -1.74453,43.12745 2.51427,17.73151 7.7696,22.01309 29.92214,24.37789 18.4696,1.9716 19.6796,2.24814 23.34614,5.33321 4.42786,3.72586 6.57386,8.1108 7.95573,16.25613 2.48333,14.63694 -2.08893,27.65414 -11.41787,32.50747 -3.15533,1.64147 -2.93907,1.65454 -46.40587,-2.81373 -34.97401,-3.59507 -71.06362,-4.73 -103.40042,-3.25133 -15.77334,0.72133 -36.71641,2.232 -46.54028,3.35706 -24.33214,2.7868 -27.32734,2.71574 -31.43987,-0.74466 -1.824,-1.5348 -4.56493,-5.23454 -6.09107,-8.22174 -2.39373,-4.68533 -2.77147,-6.7432 -2.74893,-14.97933 0.0373,-13.70174 3.54547,-21.58041 11.46293,-25.74561 1.8564,-0.97667 7.61147,-1.99693 13.81134,-2.4484 10.97773,-0.79947 24.95894,-3.09613 36.04987,-5.92183 18.79547,-4.78878 31.03601,-22.19472 38.67641,-54.99775 1.22307,-5.25135 3.20547,-13.60574 4.40533,-18.56534 1.19987,-4.95959 2.83894,-11.8818 3.64254,-15.3827 3.05067,-13.29165 5.98893,-25.67037 7.42827,-31.29583 0.82106,-3.20916 2.4704,-10.13137 3.6652,-15.38271 1.19466,-5.25133 2.85666,-12.41224 3.6932,-15.91314 0.83666,-3.50089 2.5088,-10.66181 3.71613,-15.91314 1.20734,-5.25133 3.16774,-13.60573 4.3568,-18.56533 1.18894,-4.95959 2.8192,-11.8818 3.62267,-15.38269 0.8036,-3.5009 2.43893,-10.42311 3.6344,-15.3827 1.19533,-4.9596 3.89507,-16.41706 5.9996,-25.46102 4.3036,-18.495 8.7952,-37.58709 12.72854,-54.10468 1.45893,-6.12656 3.31893,-14.00356 4.13346,-17.50445 0.8144,-3.50088 2.69294,-11.3779 4.17441,-17.50445 1.48146,-6.12656 5.81613,-24.47861 9.6324,-40.78235 3.8164,-16.30372 7.65987,-32.05773 8.5412,-35.00889 2.3388,-7.83224 4.84693,-25.68913 4.0756,-29.01803 -1.2936,-5.58345 -3.34587,-7.64357 -7.61427,-7.64357 -7.43693,0 -16.8908,6.70377 -22.8804,16.22468 -5.94987,9.45775 -7.13934,12.86106 -19.26427,55.11921 -15.41321,53.7193 -15.85841,55.1185 -20.46414,64.34248 -2.15613,4.31796 -6.06853,10.13973 -8.69414,12.93729 -5.15186,5.4891 -14.8136,10.50771 -20.2292,10.50771 -4.23,0 -11.12933,-3.60417 -13.33067,-6.9638 -2.25973,-3.44876 -2.96747,-2.54361 -4.61573,5.90292 -2.27934,11.68067 -7.31,30.40242 -10.774,40.09557 -1.81507,5.07935 -4.0284,11.31148 -4.91854,13.8492 -2.73933,7.81032 -15.40013,32.0296 -21.71227,41.53408 -8.71027,13.11565 -23.256,30.93279 -34.34467,42.06914 -21.91587,22.00986 -44.71414,34.32939 -63.48588,34.30591 -19.08494,-0.0239 -46.27988,-7.77 -60.96428,-17.36483 -12.47467,-8.15111 -14.5352,-9.14907 -18.89107,-9.14907 -9.02227,0 -9.80787,1.73319 -18.75414,41.37416 -0.856,3.79264 -3.06026,13.34052 -4.89866,21.21752 -6.2788,26.90417 -7.84627,45.65576 -5.13627,61.44392 2.9764,17.33895 7.43827,20.56491 32.32627,23.37238 18.09707,2.04146 21.74841,3.53066 25.64227,10.45893 2.67214,4.75427 4.54374,15.95481 3.7884,22.67134 -1.06866,9.5028 -5.99533,18.12814 -11.72093,20.5204 -4.0616,1.69707 -3.97174,1.69547 -17.28654,0.3196 z M 384,624 c 17.35801,-8.83417 30.46094,-29.93337 43.60721,-70.2191 2.35773,-7.22512 4.99267,-15.28484 5.85533,-17.91052 5.11281,-15.56131 15.19081,-60.024 17.55361,-77.44394 0.5144,-3.79262 2.45413,-16.68227 4.3104,-28.64364 2.6772,-17.25072 3.39467,-25.25799 3.4692,-38.72197 0.0987,-17.89933 -0.59267,-22.13083 -5.22347,-31.95628 -5.5152,-11.70129 -16.7284,-14.38074 -30.77467,-7.35367 -12.98307,6.49516 -24.14841,19.64698 -34.72347,40.90126 -5.6652,11.38585 -8.94254,19.07271 -17.18801,40.31327 -1.69026,4.35419 -8.99827,28.48125 -11.40733,37.66112 -3.8272,14.58319 -5.0068,19.67027 -7.13427,30.76539 -1.23067,6.41829 -2.9232,15.2501 -3.76133,19.6262 -5.66534,29.58169 -7.38414,65.84079 -3.82214,80.62658 3.5216,14.61821 9.82187,23.35696 18.40334,25.52646 5.76053,1.45633 14.29547,0.15732 20.8356,-3.17116 z m 359.90647,0.41921 c 15.36747,-7.78724 28.72507,-26.8657 39.57681,-56.52651 14.9696,-40.91612 25.00693,-83.83362 32.9208,-140.76209 4.25227,-30.58748 4.67667,-40.48805 2.29667,-53.57423 -1.95147,-10.73057 -4.7516,-16.74591 -10.00374,-21.49092 -4.10626,-3.70982 -4.83693,-3.9701 -11.14453,-3.9701 -5.60987,0 -8.02,0.63533 -14.268,3.76102 -10.09867,5.05218 -22.07561,17.75751 -29.68094,31.48596 -5.32934,9.61999 -14.65481,29.60831 -17.57814,37.67698 -0.79493,2.19425 -2.6664,7.33129 -4.1588,11.41567 -7.2824,19.93096 -15.97067,52.49181 -20.2396,75.85262 -0.90627,4.9596 -2.4048,13.17741 -3.33014,18.26181 -4.5908,25.22782 -6.06867,58.58033 -3.24867,73.31885 2.80481,14.65948 9.97774,25.06901 18.81401,27.30289 5.46387,1.38133 14.2748,0.17168 20.04427,-2.75195 z"
       id="path845" />
  </g>
</svg>
