<?xml version="1.0" encoding="UTF-8" standalone="no"?>
<!-- Created with Inkscape (http://www.inkscape.org/) -->

<svg
   width="64"
   height="64"
   viewBox="0 0 64 64"
   version="1.1"
   id="svg5"
   inkscape:version="1.1.2 (0a00cf5339, 2022-02-04)"
   sodipodi:docname="not-allowed.svg"
   inkscape:export-filename="/home/amedeo/Github/ammatwain/pianissimo/src/Library/Frontend/AS/not-allowed.png"
   inkscape:export-xdpi="36"
   inkscape:export-ydpi="36"
   xmlns:inkscape="http://www.inkscape.org/namespaces/inkscape"
   xmlns:sodipodi="http://sodipodi.sourceforge.net/DTD/sodipodi-0.dtd"
   xmlns="http://www.w3.org/2000/svg"
   xmlns:svg="http://www.w3.org/2000/svg">
  <sodipodi:namedview
     id="namedview7"
     pagecolor="#ffffff"
     bordercolor="#666666"
     borderopacity="1.0"
     inkscape:pageshadow="2"
     inkscape:pageopacity="0.0"
     inkscape:pagecheckerboard="0"
     inkscape:document-units="px"
     showgrid="true"
     units="px"
     width="64px"
     inkscape:zoom="5.9010101"
     inkscape:cx="48.296816"
     inkscape:cy="23.640021"
     inkscape:window-width="1920"
     inkscape:window-height="1007"
     inkscape:window-x="0"
     inkscape:window-y="0"
     inkscape:window-maximized="1"
     inkscape:current-layer="layer1">
    <inkscape:grid
       type="xygrid"
       id="grid824"
       empspacing="4" />
  </sodipodi:namedview>
  <defs
     id="defs2">
    <filter
       inkscape:collect="always"
       style="color-interpolation-filters:sRGB"
       id="filter2630"
       x="-0.067972804"
       y="-0.067972804"
       width="1.1359456"
       height="1.1359456">
      <feGaussianBlur
         inkscape:collect="always"
         stdDeviation="1.5860321"
         id="feGaussianBlur2632" />
    </filter>
  </defs>
  <g
     inkscape:label="Layer 1"
     inkscape:groupmode="layer"
     id="layer1">
    <path
       id="path944"
       style="color:#000000;opacity:0.309137;fill:#000000;stroke-width:1.00084;stroke-linecap:round;stroke-linejoin:bevel;-inkscape-stroke:none;filter:url(#filter2630)"
       d="M 32,3.9999991 C 16.58303,4.0000101 3.999985,16.58301 3.9999991,32 3.9999856,47.41699 16.583031,59.999991 32,60.000001 47.416981,60.000007 60.000016,47.417001 60.000001,32 60.000016,16.582999 47.416982,3.9999946 32,3.9999991 Z M 27.996649,12.403518 V 51.596482 C 18.843607,49.755616 12.006693,41.717405 12.006702,32 c -1e-5,-9.717404 6.836904,-17.755616 15.989947,-19.596482 z m 8.006702,0 C 45.156398,14.244378 51.993309,22.282589 51.993299,32 c 9e-6,9.717412 -6.836902,17.755622 -15.989948,19.596482 z"
       transform="rotate(45,32,32)" />
    <path
       id="path944-35"
       style="color:#000000;fill:#ffffff;stroke-width:1.00084;stroke-linecap:round;stroke-linejoin:bevel;-inkscape-stroke:none;opacity:0.666"
       d="m 47.798992,8.2010118 c -10.901456,-10.9014398 -28.696533,-10.9014681 -39.5979816,0 -10.9014646,10.9014462 -10.901432,28.6965322 1.4e-6,39.5979802 10.9014412,10.901455 28.6965302,10.901476 39.5979782,0 10.90148,-10.901452 10.90146,-28.696528 2e-6,-39.5979802 z M 39.02601,11.3124 11.312398,39.026012 C 6.1419119,31.252142 6.9913556,20.733843 13.862606,13.862607 20.733841,6.9913578 31.252143,6.1419112 39.02601,11.3124 Z m 5.661593,5.661594 c 5.170493,7.773862 4.321048,18.292164 -2.550206,25.163404 -6.871241,6.871255 -17.389543,7.720701 -25.163406,2.550208 z" />
    <path
       id="path944-3"
       style="color:#000000;fill:#ff0000;stroke-width:1.00084;stroke-linecap:round;stroke-linejoin:bevel;-inkscape-stroke:none"
       d="m 46.383592,9.6164098 c -10.136513,-10.13649733 -26.630668,-10.13653269 -36.7671836,0 -10.13653129,10.1365172 -10.13649522,26.6306712 1.4e-6,36.7671822 10.1365032,10.136518 26.6306592,10.136541 36.7671822,2e-6 10.136541,-10.136522 10.136516,-26.630676 0,-36.7671842 z M 42.071051,11.098155 11.098155,42.071051 C 3.8716431,33.418695 4.3182681,20.576131 12.447205,12.447207 20.576128,4.3182695 33.418694,3.8716429 42.071051,11.098155 Z m 2.830796,2.830797 c 7.226524,8.652354 6.779893,21.494916 -1.349051,29.623845 -8.128931,8.128945 -20.971499,8.575581 -29.623844,1.349051 z" />
  </g>
</svg>
