<?xml version="1.0" encoding="UTF-8" standalone="no"?>
<!-- Created with Inkscape (http://www.inkscape.org/) -->

<svg
   width="160"
   height="160"
   viewBox="0 0 160 160"
   version="1.1"
   id="svg5"
   inkscape:version="1.1.2 (0a00cf5339, 2022-02-04)"
   sodipodi:docname="pen.svg"
   xmlns:inkscape="http://www.inkscape.org/namespaces/inkscape"
   xmlns:sodipodi="http://sodipodi.sourceforge.net/DTD/sodipodi-0.dtd"
   xmlns="http://www.w3.org/2000/svg"
   xmlns:svg="http://www.w3.org/2000/svg">
  <sodipodi:namedview
     id="namedview7"
     pagecolor="#ffffff"
     bordercolor="#666666"
     borderopacity="1.0"
     inkscape:pageshadow="2"
     inkscape:pageopacity="0.0"
     inkscape:pagecheckerboard="0"
     inkscape:document-units="px"
     showgrid="false"
     units="px"
     inkscape:zoom="1.4752525"
     inkscape:cx="-78.291682"
     inkscape:cy="153.87196"
     inkscape:window-width="1920"
     inkscape:window-height="1051"
     inkscape:window-x="1920"
     inkscape:window-y="0"
     inkscape:window-maximized="1"
     inkscape:current-layer="layer1" />
  <defs
     id="defs2" />
  <g
     inkscape:label="Layer 1"
     inkscape:groupmode="layer"
     id="layer1">
    <path
       style="fill:#000000;stroke-width:0.410073"
       d="m 20.192196,139.35772 c -1.059502,-4.99357 2.565872,-10.50485 3.461838,-15.6736 2.462987,-7.57451 4.15984,-15.6083 8.157777,-22.54806 25.066765,-24.794166 49.849402,-49.876312 75.169379,-74.414263 3.73542,-3.661738 8.21004,-8.108619 13.96355,-6.30876 5.82,2.13787 9.45415,7.677191 13.93198,11.686678 5.2619,3.824149 7.28221,12.225431 2.13756,16.989765 -23.46248,24.222793 -47.612738,47.780559 -71.634837,71.4525 -4.575457,4.29414 -8.88382,9.48222 -15.357316,10.81713 C 40.44125,134.4866 30.734741,137.2164 21.049129,140 Z m 17.521108,-7.96615 c 7.417755,-2.45999 15.935284,-3.51752 21.383357,-9.66401 C 78.293886,103.25219 97.050395,84.328821 116.02375,65.626265 108.82187,58.468985 101.61999,51.311706 94.418115,44.154428 74.746289,63.885417 54.713806,83.268971 35.393696,103.34051 c -4.462903,4.87207 -4.96775,11.89253 -7.211275,17.85822 -1.072555,4.63148 -3.202415,9.26429 -3.696909,13.89659 4.432179,-1.15036 8.823099,-2.45428 13.227792,-3.70375 z M 127.20154,54.474688 c 3.68714,-4.449772 11.19971,-8.618222 8.62373,-15.398326 -3.485,-5.618162 -8.96464,-9.756445 -13.89364,-14.081028 -6.35085,-4.50462 -11.34577,3.795845 -15.64572,7.405397 -3.13494,3.094674 -6.26855,6.190677 -9.402955,9.285886 7.192285,7.040326 14.131635,14.35298 21.636235,21.064712 3.07952,-2.550053 5.82546,-5.486771 8.68235,-8.276641 z"
       id="path836" />
  </g>
</svg>
