<?xml version="1.0" encoding="UTF-8" standalone="no"?>
<!-- Created with Inkscape (http://www.inkscape.org/) -->

<svg
   width="200"
   height="200"
   viewBox="0 0 52.916665 52.916665"
   version="1.1"
   id="svg5"
   inkscape:version="1.1.2 (0a00cf5339, 2022-02-04)"
   sodipodi:docname="pen.svg"
   xmlns:inkscape="http://www.inkscape.org/namespaces/inkscape"
   xmlns:sodipodi="http://sodipodi.sourceforge.net/DTD/sodipodi-0.dtd"
   xmlns="http://www.w3.org/2000/svg"
   xmlns:svg="http://www.w3.org/2000/svg">
  <sodipodi:namedview
     id="namedview7"
     pagecolor="#ffffff"
     bordercolor="#666666"
     borderopacity="1.0"
     inkscape:pageshadow="2"
     inkscape:pageopacity="0.0"
     inkscape:pagecheckerboard="0"
     inkscape:document-units="mm"
     showgrid="false"
     units="px"
     inkscape:zoom="1.4752525"
     inkscape:cx="-78.291681"
     inkscape:cy="153.53304"
     inkscape:window-width="1920"
     inkscape:window-height="1007"
     inkscape:window-x="0"
     inkscape:window-y="0"
     inkscape:window-maximized="1"
     inkscape:current-layer="layer1" />
  <defs
     id="defs2" />
  <g
     inkscape:label="Layer 1"
     inkscape:groupmode="layer"
     id="layer1">
    <path
       style="fill:#000000;stroke-width:0.144487"
       d="M 5.4392002,47.426278 C 5.066844,45.662316 6.3409621,43.715468 6.6558445,41.889623 7.5214483,39.213951 8.1177982,36.376037 9.5228517,33.924587 18.332432,25.166118 27.042157,16.305922 35.940728,7.6379614 c 1.312795,-1.2934988 2.885377,-2.8643465 4.907415,-2.2285517 2.045408,0.7551964 3.322612,2.711946 4.896321,4.1282855 1.849267,1.3508698 2.559295,4.3185988 0.751235,6.0015858 -8.245765,8.556632 -16.733245,16.878345 -25.175683,25.240392 -1.60802,1.516891 -3.122171,3.349565 -5.397246,3.821121 -3.367148,1.104774 -6.7784486,2.069068 -10.1824052,3.052368 z M 11.5969,44.612256 c 2.60693,-0.86898 5.60037,-1.242554 7.515066,-3.41378 6.746762,-6.526374 13.338638,-13.210999 20.006722,-19.817623 -2.531061,-2.528289 -5.062123,-5.056577 -7.593186,-7.584865 -6.913558,6.969915 -13.953867,13.8171 -20.743816,20.907314 -1.5684634,1.721046 -1.7458891,4.201003 -2.5343639,6.308367 -0.3769436,1.636052 -1.1254715,3.27258 -1.2992589,4.908929 C 8.5057289,45.514239 10.048894,45.05363 11.5969,44.612256 Z M 43.047063,17.44159 c 1.295828,-1.571869 3.936078,-3.044362 3.030765,-5.439414 -1.224786,-1.9846 -3.150573,-3.4464364 -4.882845,-4.9740828 -2.231974,-1.5912443 -3.987411,1.3408712 -5.498606,2.6159351 -1.101758,1.0931847 -2.203049,2.1868387 -3.304619,3.2802127 2.527689,2.486975 4.966487,5.070149 7.603938,7.441049 1.082285,-0.900799 2.04733,-1.938186 3.051367,-2.9237 z"
       id="path836" />
  </g>
</svg>
