<?xml version="1.0" encoding="UTF-8" standalone="no"?>
<svg
   viewBox="0 0 160 160"
   version="1.1"
   id="svg6"
   sodipodi:docname="plus.svg"
   inkscape:version="1.1.2 (0a00cf5339, 2022-02-04)"
   xmlns:inkscape="http://www.inkscape.org/namespaces/inkscape"
   xmlns:sodipodi="http://sodipodi.sourceforge.net/DTD/sodipodi-0.dtd"
   xmlns="http://www.w3.org/2000/svg"
   xmlns:svg="http://www.w3.org/2000/svg">
  <defs
     id="defs10" />
  <sodipodi:namedview
     id="namedview8"
     pagecolor="#ffffff"
     bordercolor="#666666"
     borderopacity="1.0"
     inkscape:pageshadow="2"
     inkscape:pageopacity="0.0"
     inkscape:pagecheckerboard="0"
     showgrid="true"
     inkscape:zoom="4.025"
     inkscape:cx="79.875776"
     inkscape:cy="80"
     inkscape:window-width="1920"
     inkscape:window-height="1051"
     inkscape:window-x="1920"
     inkscape:window-y="0"
     inkscape:window-maximized="1"
     inkscape:current-layer="svg6">
    <inkscape:grid
       type="xygrid"
       id="grid827" />
  </sodipodi:namedview>
  <path
     d="M80 10a70 70 0 0 0-70 70 70 70 0 0 0 70 70 70 70 0 0 0 70-70 70 70 0 0 0-70-70Zm0 10a60 60 0 0 1 60 60 60 60 0 0 1-60 60 60 60 0 0 1-60-60 60 60 0 0 1 60-60Z"
     style="opacity:.2;fill:#000;fill-opacity:1;stroke-width:2.34476"
     id="path2" />
  <path
     id="rect931"
     style="fill:#000000;stroke-width:2.74182"
     d="M 75 35 L 75 75 L 35 75 L 35 85 L 75 85 L 75 125 L 85 125 L 85 85 L 125 85 L 125 75 L 85 75 L 85 35 L 75 35 z " />
</svg>
